Coordinates
version=1
nRows=5
nColumns=63
inDegrees=yes

Units are S.I. units (second, meters, Newtons, ...)
If the header above contains a line with 'inDegrees', this indicates whether rotational values are in degrees (yes) or radians (no).

endheader
time	pelvis_tilt	pelvis_list	pelvis_rotation	pelvis_tx	pelvis_ty	pelvis_tz	hip_flexion_r	hip_adduction_r	hip_rotation_r	knee_angle_r	knee_angle_r_beta	ankle_angle_r	subtalar_angle_r	mtp_angle_r	hip_flexion_l	hip_adduction_l	hip_rotation_l	knee_angle_l	knee_angle_l_beta	ankle_angle_l	subtalar_angle_l	mtp_angle_l	L5_S1_Flex_Ext	L5_S1_Lat_Bending	L5_S1_axial_rotation	L4_L5_Flex_Ext	L4_L5_Lat_Bending	L4_L5_axial_rotation	L3_L4_Flex_Ext	L3_L4_Lat_Bending	L3_L4_axial_rotation	L2_L3_Flex_Ext	L2_L3_Lat_Bending	L2_L3_axial_rotation	L1_L2_Flex_Ext	L1_L2_Lat_Bending	L1_L2_axial_rotation	L1_T12_Flex_Ext	L1_T12_Lat_Bending	L1_T12_axial_rotation	Abs_r3	Abs_r2	Abs_r1	Abs_t1	Abs_t2	neck_flexion	neck_bending	neck_rotation	arm_flex_r	arm_add_r	arm_rot_r	elbow_flex_r	pro_sup_r	wrist_flex_r	wrist_dev_r	arm_flex_l	arm_add_l	arm_rot_l	elbow_flex_l	pro_sup_l	wrist_flex_l	wrist_dev_l
      6.05000000	      0.73132876	      0.84845519	    102.04822386	      0.26488090	      0.80152028	      0.60794132	     -4.84333588	      2.02220035	     -9.77010431	      5.39091645	      0.09408924	     29.50793512	      6.20644434	      0.00000000	     -1.44307736	     -1.56826252	      6.06582683	      6.35169157	      0.11085793	     30.82596166	      8.47345887	      0.00000000	      0.00283671	     -0.22404961	     -1.12786940	      0.00526806	     -0.29798597	     -1.19836124	      0.00466044	     -0.54475421	     -1.19836124	      0.00324208	     -0.54475421	     -0.98688573	      0.00263417	     -0.45688195	     -0.91639389	      0.00162090	     -0.34705284	     -0.84590205	      0.02026236	     -2.53449394	     -6.27287125	      0.00000000	      0.00000000	     -4.40064550	      8.94170516	     -6.87511151	     10.43730471	    -27.25070302	    -18.91285692	    118.44647323	     81.59656906	     -6.37027602	     10.58528955	     24.62302057	    -32.20821235	     -9.35325266	    105.05148158	     83.17904916	     -7.68722859	     -9.76152392
      6.06666667	      0.64012028	      0.72622106	    101.70546556	      0.26535585	      0.80145565	      0.60797765	     -4.63581882	      1.86478030	     -9.44143690	      5.66310346	      0.09883980	     29.58593341	      6.03643336	      0.00000000	     -1.37514330	     -1.42293076	      6.11964153	      6.31074273	      0.11014324	     30.70072388	      7.98200366	      0.00000000	      0.01197922	     -0.23554287	     -1.00095227	      0.02224660	     -0.31327202	     -1.06351179	      0.01968065	     -0.57269894	     -1.06351179	      0.01369105	     -0.57269894	     -0.87583324	      0.01112390	     -0.48031902	     -0.81327372	      0.00684492	     -0.36485591	     -0.75071420	      0.08556634	     -2.66450807	     -5.56699624	      0.00000000	      0.00000000	     -4.32081069	      8.85385834	     -7.28309846	      8.55402917	    -27.38654482	    -20.91195300	    119.29093209	     81.41105646	     -6.21804108	     11.25800514	     24.01329846	    -32.48819691	     -9.83509179	    105.08874716	     80.72013077	     -8.19297254	    -10.94555911
      6.08333333	      0.54630078	      0.90645756	    101.65348294	      0.26555522	      0.80180275	      0.60826010	     -4.80388312	      1.80693264	     -9.46261085	      5.82921603	      0.10173901	     29.66274845	      5.99164702	      0.00000000	     -1.50409929	     -1.37016110	      6.16333802	      6.46730679	      0.11287580	     30.72546339	      7.94643854	      0.00000000	     -0.02779752	     -0.24230199	     -0.97640666	     -0.05162277	     -0.32226165	     -1.03743207	     -0.04566854	     -0.58913306	     -1.03743207	     -0.03176978	     -0.58913306	     -0.85435583	     -0.02581278	     -0.49410222	     -0.79333041	     -0.01588350	     -0.37532579	     -0.73230499	     -0.19855489	     -2.74096859	     -5.43048091	      0.00000000	      0.00000000	     -4.37366300	      8.84914801	     -7.33250084	      7.84004051	    -27.48802671	    -21.51966905	    119.42360606	     81.33604311	     -6.26398175	     11.18887171	     23.52628489	    -32.79893925	    -10.43524851	    105.37362077	     80.46018732	     -8.35320083	    -11.13218741
      6.10000000	      0.31753287	      0.76394093	    101.36782795	      0.26619723	      0.80174230	      0.60835554	     -4.42392876	      1.36788411	    -11.30320055	      6.55811096	      0.11446063	     30.56849311	      8.60625880	      0.00000000	     -1.41174802	     -1.05514110	      6.72166970	      6.53402488	      0.11404025	     30.46686484	      6.78861176	      0.00000000	     -0.01238720	     -0.27770681	     -0.91340071	     -0.02300426	     -0.36935005	     -0.97048825	     -0.02035093	     -0.67521633	     -0.97048825	     -0.01415733	     -0.67521633	     -0.79922562	     -0.01150275	     -0.56629972	     -0.74213807	     -0.00707804	     -0.43016784	     -0.68505053	     -0.08848051	     -3.14147493	     -5.08006071	      0.00000000	      0.00000000	     -4.40565423	      9.02017115	     -7.79362568	      7.62026361	    -27.45416657	    -21.50498629	    119.17141158	     79.60925437	     -5.34048854	     10.84599928	     23.16450152	    -33.04319099	    -10.16577304	    105.97086270	     77.89934233	     -9.43818829	    -11.17300881
      6.11666667	      0.14015382	      0.80375063	    101.37709649	      0.26659910	      0.80195262	      0.60849073	     -4.46259528	      1.20934635	    -11.48915110	      6.70277486	      0.11698549	     30.81621094	      8.66336959	      0.00000000	     -1.35501186	     -0.90239303	      6.62856235	      6.88326360	      0.12013561	     30.42165146	      6.91346046	      0.00000000	     -0.02211084	     -0.30485387	     -0.96195267	     -0.04106204	     -0.40545565	     -1.02207472	     -0.03632590	     -0.74122171	     -1.02207472	     -0.02527048	     -0.74122171	     -0.84170859	     -0.02053212	     -0.62165802	     -0.78158655	     -0.01263413	     -0.47221865	     -0.72146450	     -0.15793551	     -3.44856799	     -5.35009218	      0.00000000	      0.00000000	     -4.49739362	      9.30064063	     -7.87425394	      8.39224876	    -27.39939700	    -20.27498192	    118.67274845	     78.41633316	     -4.73462249	     11.43299049	     22.78614453	    -33.13482789	    -10.32120015	    106.61443428	     77.25526773	     -9.14627390	    -10.81349889
